<svg width="12" height="20" fill="none" xmlns="http://www.w3.org/2000/svg"><g clip-path="url(#clip0_253_2152)"><path d="M.444 10.78l8.9 8.9c.206.207.481.32.774.32.293 0 .568-.113.774-.32l.655-.655a1.096 1.096 0 000-1.547l-7.473-7.474 7.482-7.482c.205-.206.32-.48.32-.773a1.09 1.09 0 00-.32-.774L10.9.32a1.087 1.087 0 00-.774-.32c-.293 0-.567.113-.773.32L.444 9.228c-.206.206-.32.482-.319.776 0 .294.113.57.32.776z" fill="#E1CC9A"/></g><defs><clipPath id="clip0_253_2152"><path fill="#fff" d="M0 0h12v20H0z"/></clipPath></defs></svg>