<svg width="88" height="18" fill="none" xmlns="http://www.w3.org/2000/svg"><g clip-path="url(#clip0_253_2317)"><path d="M14.094 0c1.57.284 3.096.787 4.538 1.493 2.49 3.894 3.726 8.285 3.27 13.35-1.905 1.491-3.753 2.396-5.57 2.988a14.71 14.71 0 01-1.191-2.055c.653-.26 1.282-.581 1.88-.96-.156-.122-.31-.25-.46-.38-3.576 1.773-7.508 1.773-11.127 0a9.27 9.27 0 01-.46.38c.597.378 1.225.698 1.877.958a14.686 14.686 0 01-1.192 2.056c-1.815-.593-3.66-1.497-5.566-2.987-.389-4.37.39-8.801 3.261-13.346A17.278 17.278 0 017.896 0c.197.37.43.868.588 1.264a15.923 15.923 0 015.029 0c.173-.431.367-.853.581-1.264zM57.74 5.704c1.21 0 2.216.271 3.015.816v2.37a3.678 3.678 0 00-.986-.505 3.668 3.668 0 00-1.206-.194c-.75 0-1.337.146-1.76.44-.425.294-.637.677-.637 1.153 0 .466.205.848.617 1.147.412.298 1.009.448 1.793.448.402 0 .8-.063 1.193-.187a4.34 4.34 0 001.01-.46v2.292c-.887.57-1.916.855-3.088.855-.985-.003-1.826-.185-2.52-.548-.694-.362-1.218-.855-1.568-1.476-.349-.622-.525-1.322-.525-2.099 0-.777.181-1.473.544-2.085.364-.613.896-1.094 1.6-1.444.701-.35 1.54-.523 2.518-.523zm-9.095-.002c.678 0 1.3.077 1.865.233.566.155 1.033.353 1.405.596v2.034a5.042 5.042 0 00-1.315-.578 5.526 5.526 0 00-1.533-.213c-.76 0-1.138.139-1.138.415 0 .13.059.226.176.29.118.065.334.132.647.202l1.211.233c.791.146 1.38.404 1.768.77.388.367.581.909.581 1.627 0 .786-.32 1.41-.962 1.872-.641.463-1.551.694-2.731.694a7.604 7.604 0 01-2.022-.274 6.174 6.174 0 01-1.768-.79v-2.15c.396.328.927.598 1.593.81.666.212 1.31.317 1.932.317.29 0 .51-.04.66-.122.148-.081.223-.18.223-.292 0-.13-.04-.237-.121-.324-.082-.087-.24-.16-.473-.22l-1.453-.35c-.832-.207-1.422-.494-1.773-.862-.351-.367-.526-.848-.526-1.444 0-.501.152-.936.46-1.308.306-.372.742-.66 1.308-.86.566-.204 1.226-.306 1.986-.306zM88 4.29v9.326h-2.967V11.92c-.251.638-.632 1.125-1.144 1.458-.512.331-1.145.498-1.896.498-.67 0-1.255-.174-1.756-.524-.5-.35-.885-.829-1.157-1.438-.27-.609-.407-1.297-.407-2.067-.008-.794.135-1.506.431-2.137.294-.631.711-1.123 1.248-1.477a3.263 3.263 0 011.835-.531c1.39 0 2.329.634 2.82 1.902l.026.067V4.29H88zM66.252 5.7c.96 0 1.789.172 2.483.518.693.346 1.223.82 1.586 1.425.364.605.545 1.299.545 2.085 0 .778-.181 1.481-.545 2.112-.363.63-.894 1.127-1.593 1.49-.7.362-1.524.543-2.477.543-.954 0-1.779-.179-2.476-.542-.7-.362-1.232-.858-1.599-1.49a4.125 4.125 0 01-.551-2.11c0-.778.183-1.472.551-2.08.369-.61.898-1.087 1.594-1.433.693-.346 1.522-.518 2.482-.518zm-22.75 2.124v5.833h-2.957V7.824c.906.418 2.03.437 2.958 0zM77.04 5.87c.428 0 .794.104 1.102.311v2.798c-.307-.217-.705-.324-1.198-.324-.646 0-1.144.21-1.49.627-.348.419-.521 1.07-.521 1.95v2.384h-2.967V6.04h2.907v2.409c.16-.881.422-1.53.782-1.95.358-.419.821-.628 1.385-.628zM34.28 4.55c1.138 0 2.1.19 2.889.57.787.38 1.377.908 1.768 1.586.39.677.588 1.452.588 2.326 0 .855-.204 1.63-.612 2.324-.409.696-1.03 1.245-1.865 1.65-.836.406-1.87.61-3.107.61h-4.384V4.548h4.723zM7.344 7.443c-1.106 0-1.978 1.064-1.978 2.357 0 1.294.891 2.356 1.978 2.356 1.105 0 1.979-1.062 1.977-2.356.02-1.295-.872-2.357-1.977-2.357zm7.307 0c-1.105 0-1.977 1.064-1.977 2.357 0 1.294.89 2.356 1.977 2.356 1.106 0 1.978-1.062 1.978-2.356.019-1.295-.872-2.357-1.978-2.357zm51.6.644c-.518 0-.923.154-1.219.46-.293.308-.44.719-.44 1.237 0 .518.146.934.44 1.25.295.314.701.473 1.219.473.508-.002.91-.16 1.203-.474.295-.314.443-.73.443-1.25 0-.517-.147-.93-.443-1.235-.293-.307-.695-.461-1.203-.461zm17.147.039c-.5 0-.9.153-1.199.46-.3.308-.448.706-.448 1.198s.149.894.448 1.205c.3.31.694.466 1.187.466.5-.002.901-.16 1.204-.474.303-.314.453-.723.453-1.223 0-.483-.147-.877-.44-1.179-.295-.301-.698-.453-1.205-.453zM34.063 6.855h-1.477v4.456h1.306c.767 0 1.357-.206 1.768-.615.412-.41.618-.97.618-1.678 0-.657-.184-1.18-.55-1.573-.367-.392-.922-.59-1.665-.59zm7.962-2.852c.817 0 1.48.636 1.48 1.421s-.663 1.422-1.48 1.422-1.48-.637-1.48-1.422c0-.785.663-1.42 1.48-1.42z" fill="#fff"/></g><defs><clipPath id="clip0_253_2317"><path fill="#fff" d="M0 0h88v18H0z"/></clipPath></defs></svg>