<svg width="18" height="18" fill="none" xmlns="http://www.w3.org/2000/svg"><path d="M17.413 9.475A2.757 2.757 0 0018 7.778c0-.98-.565-1.909-1.474-2.427a1.558 1.558 0 00-.771-.203h-5.396l.135-2.684A2.3 2.3 0 009.83.73a2.401 2.401 0 00-.798-.542A2.461 2.461 0 008.078 0c-1.17 0-2.205.764-2.516 1.859L3.629 8.652h-.006V18h10.626c.207 0 .41-.04.596-.118 1.071-.443 1.762-1.459 1.762-2.586 0-.275-.04-.546-.121-.808a2.757 2.757 0 00.465-2.505 2.757 2.757 0 00.588-1.698 2.903 2.903 0 00-.126-.81zM0 9.351v7.95c0 .387.322.699.72.699h1.463V8.652H.72A.709.709 0 000 9.35z" fill="#D0A163"/></svg>